<?xml version="1.0" standalone="no"?>
<!DOCTYPE svg PUBLIC "-//W3C//DTD SVG 20010904//EN"
 "http://www.w3.org/TR/2001/REC-SVG-20010904/DTD/svg10.dtd">
<svg version="1.0" xmlns="http://www.w3.org/2000/svg"
 width="512.000000pt" height="512.000000pt" viewBox="0 0 512.000000 512.000000"
 preserveAspectRatio="xMidYMid meet">

<g transform="translate(0.000000,512.000000) scale(0.100000,-0.100000)"
fill="#000000" stroke="none">
<path d="M1875 4461 c-605 -274 -1108 -505 -1117 -514 -16 -15 -18 -43 -18
-290 0 -248 2 -275 18 -289 21 -19 461 -218 481 -218 8 0 207 88 443 195 236
107 433 195 438 195 4 0 48 -18 96 -41 l88 -40 -109 -50 c-61 -27 -116 -57
-122 -66 -10 -13 -13 -86 -13 -283 0 -197 3 -270 13 -283 11 -15 467 -227 487
-227 5 0 154 66 332 146 178 80 379 170 448 201 69 31 133 65 143 76 15 17 17
41 17 178 0 87 3 159 7 159 5 0 88 -36 185 -80 97 -44 183 -80 191 -80 20 0
459 199 480 218 16 14 17 50 17 489 0 446 -1 474 -18 489 -30 25 -1340 614
-1365 613 -12 0 -517 -224 -1122 -498z m2381 -154 c2 -2 -81 -42 -185 -89
l-190 -85 -158 72 c-87 39 -285 129 -440 199 l-283 128 -227 -104 c-178 -80
-228 -107 -228 -122 0 -14 85 -57 413 -204 226 -103 412 -189 412 -193 0 -7
-352 -169 -369 -169 -7 0 -208 88 -447 196 l-435 197 -434 -197 c-238 -108
-439 -196 -446 -196 -7 0 -94 37 -195 82 -181 82 -183 83 -156 97 15 8 106 50
202 93 395 179 556 251 1218 551 l694 314 625 -283 c345 -156 628 -285 629
-287z m-1276 -2 c0 -85 -3 -155 -7 -155 -10 0 -352 154 -349 157 7 7 333 152
344 152 9 1 12 -36 12 -154z m450 -21 c215 -98 389 -178 388 -180 -2 -1 -87
-40 -190 -87 l-186 -84 -211 96 -211 96 0 167 c0 108 4 168 10 168 6 0 186
-79 400 -176z m870 -179 c0 -85 -4 -155 -8 -155 -18 0 -337 150 -334 157 5 9
311 151 330 152 9 1 12 -36 12 -154z m-236 -106 c99 -45 184 -84 188 -88 7 -6
-348 -171 -370 -171 -24 0 -373 163 -365 171 7 6 350 166 362 168 2 1 85 -36
185 -80z m-1524 -109 c184 -84 350 -159 369 -167 l35 -15 -242 -109 c-133 -60
-247 -109 -254 -108 -7 0 -78 30 -158 67 l-145 68 -3 222 -2 222 32 -14 c18
-7 184 -82 368 -166z m-442 -47 l-3 -218 -410 -187 c-225 -103 -413 -187 -418
-187 -4 -1 -6 99 -5 220 l3 222 400 182 c220 101 408 183 418 184 16 1 17 -14
15 -216z m-1031 -84 l143 -64 0 -222 0 -223 -52 24 c-29 12 -117 52 -195 87
l-143 63 0 223 0 223 53 -23 c28 -13 116 -53 194 -88z m2349 -206 c-2 -2 -81
31 -175 73 -94 43 -168 81 -163 86 4 4 82 41 172 82 l165 74 3 -156 c1 -85 1
-157 -2 -159z m442 -81 c1 -122 1 -222 -1 -222 -5 0 -330 146 -365 164 l-32
17 0 213 c0 117 2 215 5 218 3 3 92 -34 198 -82 l192 -87 3 -221z m442 175 l0
-223 -177 -79 c-97 -44 -185 -83 -195 -87 -17 -7 -18 4 -18 215 l0 222 193 87
c105 48 193 87 195 87 1 1 2 -99 2 -222z m-1152 -33 c81 -37 167 -76 191 -86
l44 -20 -264 -120 c-145 -65 -330 -149 -411 -185 l-147 -66 -186 83 c-102 46
-185 86 -185 89 0 4 787 365 808 370 1 1 69 -29 150 -65z m264 -586 c-7 -7
-820 -378 -829 -378 -2 0 -2 100 -1 222 l3 222 185 84 c102 46 289 131 415
188 l230 104 3 -217 c1 -119 -1 -220 -6 -225z m-1067 154 l190 -88 3 -222 c1
-122 1 -222 -1 -222 -1 0 -90 40 -197 88 l-195 89 -3 221 c-1 122 1 222 5 221
5 0 94 -39 198 -87z"/>
<path d="M771 3136 c-8 -9 -11 -64 -9 -171 3 -132 6 -159 19 -168 9 -6 24 -7
33 -4 14 6 16 28 16 176 0 145 -2 170 -16 175 -23 9 -30 8 -43 -8z"/>
<path d="M4303 3143 c-9 -3 -13 -36 -13 -114 0 -92 3 -111 16 -116 38 -14 49
9 52 112 3 114 -8 138 -55 118z"/>
<path d="M1212 2998 c-9 -9 -12 -105 -12 -399 0 -411 1 -416 47 -407 17 3 18
26 18 408 0 398 0 405 -20 408 -11 1 -26 -3 -33 -10z"/>
<path d="M3857 3003 c-4 -3 -7 -132 -7 -285 0 -249 2 -279 16 -285 9 -3 24 -2
33 4 14 9 16 44 19 278 2 189 -1 272 -9 281 -12 15 -41 19 -52 7z"/>
<path d="M4297 2763 c-14 -13 -7 -43 12 -53 23 -12 56 14 47 37 -3 8 -6 17 -6
19 0 7 -46 5 -53 -3z"/>
<path d="M776 2644 c-10 -9 -15 -23 -12 -31 3 -8 6 -17 6 -19 0 -2 11 -4 25
-4 29 0 43 25 28 48 -14 23 -29 25 -47 6z"/>
<path d="M2067 2593 c-4 -3 -7 -52 -7 -108 0 -81 3 -105 16 -116 11 -9 20 -10
32 -2 13 8 18 29 20 99 4 112 -1 134 -32 134 -12 0 -26 -3 -29 -7z"/>
<path d="M3867 2278 c-24 -13 -25 -156 -1 -165 31 -12 49 11 52 67 5 88 -12
121 -51 98z"/>
<path d="M2067 2214 c-13 -14 -7 -43 12 -53 24 -13 55 8 50 35 -4 19 -48 32
-62 18z"/>
<path d="M1210 2030 c-6 -11 -10 -48 -8 -82 3 -64 19 -87 52 -75 23 9 24 162
0 171 -25 10 -33 7 -44 -14z"/>
<path d="M1877 1530 c-604 -274 -1103 -502 -1109 -508 -5 -5 -8 -20 -6 -33 3
-20 36 -38 228 -126 124 -56 235 -102 248 -103 12 0 216 87 453 194 l430 195
381 -172 c209 -95 380 -176 380 -181 -1 -4 -173 -86 -384 -182 -211 -95 -391
-178 -400 -183 -10 -6 -18 -19 -18 -30 0 -10 8 -25 18 -33 23 -19 444 -208
464 -208 13 0 522 226 856 380 52 24 62 33 62 54 0 33 -10 39 -207 127 -90 40
-159 76 -155 79 4 4 79 39 167 79 l160 72 209 -96 c114 -52 218 -95 230 -95
34 0 459 195 474 218 21 32 -10 55 -168 125 -233 102 -230 80 -25 172 96 43
180 84 186 91 6 7 9 23 7 36 -3 25 38 5 -860 412 -263 119 -488 216 -500 215
-13 0 -517 -225 -1121 -499z m1106 226 c12 -8 22 -8 35 0 13 9 18 28 20 88 2
42 7 76 12 76 8 0 1159 -517 1167 -524 2 -2 -73 -37 -166 -79 l-169 -76 -430
194 c-237 107 -441 195 -454 195 -13 -1 -124 -47 -248 -104 l-225 -102 -3
-126 c-2 -103 0 -127 13 -138 12 -10 21 -10 40 -2 22 10 24 18 27 91 l3 79
355 -160 c195 -88 359 -163 363 -167 9 -8 -295 -151 -321 -151 -9 0 -211 88
-449 196 l-434 195 -441 -199 -441 -199 -146 66 c-80 37 -157 71 -170 77 -24
10 -47 0 1474 686 182 82 382 173 445 202 l115 52 5 -79 c4 -62 9 -82 23 -91z
m398 -380 c211 -95 383 -177 382 -181 -1 -5 -74 -41 -162 -81 l-160 -72 -379
171 c-209 95 -381 175 -383 180 -2 4 68 41 156 81 88 41 160 74 161 75 0 1
173 -77 385 -173z m484 -418 c42 -19 55 3 55 94 0 44 4 78 8 76 38 -14 291
-132 289 -134 -1 -1 -77 -35 -168 -76 l-166 -75 -167 75 c-91 41 -164 78 -160
81 3 3 67 34 142 67 l137 62 3 -79 c3 -73 5 -81 27 -91z m-905 -308 c0 -69 3
-81 20 -90 14 -8 26 -8 40 0 17 9 20 21 20 90 0 44 2 80 4 80 8 0 272 -122
279 -129 6 -6 -640 -306 -746 -347 -21 -8 -351 136 -339 148 4 4 142 68 307
142 165 75 323 147 350 160 28 14 53 25 58 25 4 1 7 -35 7 -79z"/>
</g>
</svg>
